{"title":"Maroon 5 - Sugar [Music Video] 720p [Sbyky]","uid":11720939,"size":77882303,"categoryP":"video","categoryS":"music_videos","magnet":"?xt=urn:btih:c3ddfbc6a9d2b0c81d1ff24e9d922742b7dca603&amp;dn=Maroon+5+-+Sugar+%5BMusic+Video%5D+720p+%5BSbyky%5D&amp;tr=udp%3A%2F%2Ftracker.openbittorrent.com%3A80&amp;tr=udp%3A%2F%2Fopen.demonii.com%3A1337&amp;tr=udp%3A%2F%2Ftracker.coppersurfer.tk%3A6969&amp;tr=udp%3A%2F%2Fexodus.desync.com%3A6969","seeders":6,"leechers":1,"uploader":"Sbyky","files":1,"time":1424811756,"description":"General\nComplete name                            : Maroon 5 - Sugar [Music Video] 720p [Sbyky].mp4\nFormat                                   : MPEG-4\nFormat profile                           : Base Media\nCodec ID                                 : isom\nFile size                                : 74.3 MiB\nDuration                                 : 5mn 1s\nOverall bit rate mode                    : Variable\nOverall bit rate                         : 2 067 Kbps\nEncoded date                             : UTC 2015-01-23 12:53:11\nTagged date                              : UTC 2015-01-23 12:53:11\n\nVideo\nID                                       : 1\nFormat                                   : AVC\nFormat/Info                              : Advanced Video Codec\nFormat profile                           : &lt;a class=&quot;__cf_email__&quot; href=&quot;/cdn-cgi/l/email-protection&quot; data-cfemail=&quot;460b272f28060a756877&quot;&gt;[email&amp;#160;protected]&lt;/a&gt;&lt;script cf-hash='f9e31' type=&quot;text/javascript&quot;&gt;\n/* &lt;![CDATA[ */!function(){try{var t=&quot;currentScript&quot;in document?document.currentScript:function(){for(var t=document.getElementsByTagName(&quot;script&quot;),e=t.length;e--;)if(t[e].getAttribute(&quot;cf-hash&quot;))return t[e]}();if(t&amp;&amp;t.previousSibling){var e,r,n,i,c=t.previousSibling,a=c.getAttribute(&quot;data-cfemail&quot;);if(a){for(e=&quot;&quot;,r=parseInt(a.substr(0,2),16),n=2;a.length-n;n+=2)i=parseInt(a.substr(n,2),16)^r,e+=String.fromCharCode(i);e=document.createTextNode(e),c.parentNode.replaceChild(e,c)}}}catch(u){}}();/* ]]&gt; */&lt;/script&gt;\nFormat settings, CABAC                   : Yes\nFormat settings, ReFrames                : 3 frames\nCodec ID                                 : avc1\nCodec ID/Info                            : Advanced Video Coding\nDuration                                 : 5mn 1s\nBit rate                                 : 1 938 Kbps\nWidth                                    : 1 280 pixels\nHeight                                   : 720 pixels\nDisplay aspect ratio                     : 16:9\nFrame rate mode                          : Variable\nFrame rate                               : 23.976 fps\nMinimum frame rate                       : 23.974 fps\nMaximum frame rate                       : 23.981 fps\nColor space                              : YUV\nChroma subsampling                       : 4:2:0\nBit depth                                : 8 bits\nScan type                                : Progressive\nBits/(Pixel*Frame)                       : 0.088\nStream size                              : 69.6 MiB (94%)\nEncoded date                             : UTC 2015-01-23 12:53:11\nTagged date                              : UTC 2015-01-23 12:53:11\n\nAudio\nID                                       : 2\nFormat                                   : AAC\nFormat/Info                              : Advanced Audio Codec\nFormat profile                           : LC\nCodec ID                                 : 40\nDuration                                 : 5mn 1s\nBit rate mode                            : Variable\nBit rate                                 : 126 Kbps\nChannel(s)                               : 2 channels\nChannel positions                        : Front: L R\nSampling rate                            : 44.1 KHz\nCompression mode                         : Lossy\nStream size                              : 4.51 MiB (6%)\nEncoded date                             : UTC 2015-01-23 12:52:44\nTagged date                              : UTC 2015-01-23 12:52:44\n\nShared By Sbyky","torrent":{"xt":"urn:btih:c3ddfbc6a9d2b0c81d1ff24e9d922742b7dca603","amp;dn":"Maroon+5+-+Sugar+%5BMusic+Video%5D+720p+%5BSbyky%5D","amp;tr":["udp%3A%2F%2Ftracker.openbittorrent.com%3A80","udp%3A%2F%2Fopen.demonii.com%3A1337","udp%3A%2F%2Ftracker.coppersurfer.tk%3A6969","udp%3A%2F%2Fexodus.desync.com%3A6969"],"infoHash":"c3ddfbc6a9d2b0c81d1ff24e9d922742b7dca603","infoHashBuffer":{"type":"Buffer","data":[195,221,251,198,169,210,176,200,29,31,242,78,157,146,39,66,183,220,166,3]},"announce":[],"urlList":[]}}